<svg xmlns="http://www.w3.org/2000/svg" viewBox="0 0 300 300"><defs><style>.cls-1{fill:#3b1a53;}.cls-2{fill:#ee5338;}</style></defs><g id="Layer_2" data-name="Layer 2"><g id="Layer_1-2" data-name="Layer 1"><path class="cls-1" d="M159,47.07c-34.92,0-63.22,28.57-63.22,63.84s28.3,63.84,63.22,63.84,63.21-28.59,63.21-63.84S193.9,47.07,159,47.07Zm0,114.87c-27.92,0-50.54-22.85-50.54-51s22.62-51,50.54-51,50.53,22.85,50.53,51S186.9,161.94,159,161.94Z"/><path id="Shape" class="cls-1" d="M269,96.15a5,5,0,0,0,9.86,0,19.58,19.58,0,0,1,5.4-10.59,19.26,19.26,0,0,1,10.5-5.45,5.06,5.06,0,0,0,0-10,19.33,19.33,0,0,1-10.5-5.45,19.6,19.6,0,0,1-5.4-10.6,5,5,0,0,0-9.86,0,19.6,19.6,0,0,1-5.4,10.6,19.33,19.33,0,0,1-10.5,5.45,5.06,5.06,0,0,0,0,10,19.26,19.26,0,0,1,10.5,5.45A19.58,19.58,0,0,1,269,96.15ZM274,67.92a29.64,29.64,0,0,0,7.14,7.21A29.46,29.46,0,0,0,274,82.34a29.46,29.46,0,0,0-7.14-7.21A29.64,29.64,0,0,0,274,67.92Z"/><path id="Shape-2" data-name="Shape" class="cls-1" d="M219.2,46.26a5,5,0,0,0,9.86,0,19.57,19.57,0,0,1,5.4-10.6A19.33,19.33,0,0,1,245,30.21a5.06,5.06,0,0,0,0-10,19.27,19.27,0,0,1-10.49-5.45,19.58,19.58,0,0,1-5.4-10.59,5,5,0,0,0-9.86,0,19.59,19.59,0,0,1-5.41,10.59,19.23,19.23,0,0,1-10.49,5.45,5.06,5.06,0,0,0,0,10,19.3,19.3,0,0,1,10.49,5.45,19.58,19.58,0,0,1,5.41,10.6ZM224.13,18a29.46,29.46,0,0,0,7.14,7.21,29.46,29.46,0,0,0-7.14,7.21A29.64,29.64,0,0,0,217,25.23,29.64,29.64,0,0,0,224.13,18Z"/><path id="Shape-3" data-name="Shape" class="cls-1" d="M279,204.06a21,21,0,0,0-9.94,2.53l-56.71,30.84a22.94,22.94,0,0,0-.6-22.36,22.47,22.47,0,0,0-19.28-11H136.81a58,58,0,0,0-73.5,0H6a6,6,0,0,0-6,6.06H0a6,6,0,0,0,6,6.06H58v71.71H6a6,6,0,0,0-6,6.05H0A6,6,0,0,0,6,300H198.94a24.69,24.69,0,0,0,13.87-4.24l77.85-52.41a21.63,21.63,0,0,0,4.16-31.85,21.21,21.21,0,0,0-15.8-7.44ZM283.12,235l-77.85,50.41c-2.46,1.66-3.36,2.54-6.32,2.53H70V215.54A48.12,48.12,0,0,1,131.75,217a4.9,4.9,0,0,0,3.26,1.21h59.87A8.57,8.57,0,0,1,203,224a10.2,10.2,0,0,1-.38,8.24c-1.21,2.64-6.17,5.14-10.54,5.14H146.67a7,7,0,0,0-7,7.07h0a7,7,0,0,0,7,7.06H210a4.91,4.91,0,0,0,2.37-.6l61.46-33.42h0c3.42-1.72,8.22-.55,10.75,1.42,1.75,1.64,3.63,4.11,3.63,6.69a10.94,10.94,0,0,1-5.09,9.34Z"/><path id="Shape-4" data-name="Shape" class="cls-1" d="M50,264.65a15.24,15.24,0,0,0-4.39-10.71,14.91,14.91,0,0,0-21.21,0,15.25,15.25,0,0,0,0,21.43,14.91,14.91,0,0,0,21.21,0A15.25,15.25,0,0,0,50,264.65Zm-20,0A5,5,0,0,1,33.09,260a5,5,0,0,1,5.45,1.09,5.09,5.09,0,0,1,1.08,5.51A5,5,0,0,1,30,264.65Z"/><path id="Shape-5" data-name="Shape" class="cls-2" d="M173,93.23,163,73c-1.52-3.06-6.46-3.06-8,0l-10,20.2-22.34,3.25a4.54,4.54,0,0,0-2.47,7.73l16.14,15.71-3.81,22.16a4.55,4.55,0,0,0,1.76,4.42,4.43,4.43,0,0,0,4.69.37l20-10.51,20,10.51a4.39,4.39,0,0,0,4.69-.37,4.54,4.54,0,0,0,1.76-4.42l-3.81-22.16,16.14-15.71a4.57,4.57,0,0,0,1.15-4.64,4.5,4.5,0,0,0-3.62-3.09Zm-.74,22.32a4.12,4.12,0,0,0-1.17,3.62l2.4,13.94-12.62-6.63a4,4,0,0,0-3.68,0l-12.62,6.63,2.4-13.94a4.08,4.08,0,0,0-1.17-3.62l-10.09-9.83,14-2a4,4,0,0,0,3-2.2L159,88.71l6.31,12.77a4,4,0,0,0,3,2.2l14,2Z"/></g></g></svg>